<svg width="24" height="24" viewBox="0 0 24 24" fill="none" xmlns="http://www.w3.org/2000/svg">
<path d="M12.0036 21H5.575L2 15.0038L9.14286 3.00375L14.8571 3L20.2126 12M9.14286 3.00375L14.0446 12.5M14.8571 3L5.575 21M2 15.0038H12.5" stroke="#131927" stroke-width="1.5" stroke-linecap="round" stroke-linejoin="round"/>
<path d="M22.6669 17.6667C22.0481 16.097 20.635 15 18.9906 15C17.2322 15 15.7382 16.2545 15.1973 18" stroke="#131927" stroke-width="1.5" stroke-linecap="round" stroke-linejoin="round"/>
<path d="M20.9941 17.7723H22.3991C22.7305 17.7723 22.9991 17.5036 22.9991 17.1723V15.55" stroke="#131927" stroke-width="1.5" stroke-linecap="round" stroke-linejoin="round"/>
<path d="M15.3331 20.3333C15.9519 21.903 17.365 23 19.0094 23C20.7678 23 22.2618 21.7455 22.8027 20" stroke="#131927" stroke-width="1.5" stroke-linecap="round" stroke-linejoin="round"/>
<path d="M17.0059 20.2277H15.6009C15.2695 20.2277 15.0009 20.4964 15.0009 20.8277V22.45" stroke="#131927" stroke-width="1.5" stroke-linecap="round" stroke-linejoin="round"/>
</svg>
