<svg width="24" height="24" viewBox="0 0 24 24" fill="none" xmlns="http://www.w3.org/2000/svg">
<path d="M8 9.76L8.01 9.74889" stroke="#131927" stroke-width="1.5" stroke-linecap="round" stroke-linejoin="round"/>
<path d="M3 6.24992C5.5 3.25001 10.5 3.25 13 6.25001" stroke="#131927" stroke-width="1.5" stroke-linecap="round" stroke-linejoin="round"/>
<path d="M5 8.25003C6.5 6.25 9.5 6.25 11 8.25003" stroke="#131927" stroke-width="1.5" stroke-linecap="round" stroke-linejoin="round"/>
<path d="M20.5 9.5L9.69585 20.3041C9.56769 20.4323 9.40711 20.5232 9.23128 20.5672L5.5 21.5L6.43288 17.7686C6.47684 17.5928 6.56775 17.4322 6.69591 17.3041L17.5 6.5L18.5 5.5C19.3284 4.67157 20.6716 4.67157 21.5 5.5C22.3284 6.32843 22.3284 7.67157 21.5 8.5L20.5 9.5ZM17.5 6.5L20.5 9.5" stroke="#131927" stroke-width="1.5" stroke-linecap="round" stroke-linejoin="round"/>
</svg>
