<svg width="24" height="24" viewBox="0 0 24 24" fill="none" xmlns="http://www.w3.org/2000/svg">
<path d="M18.1875 7C18.1875 7 18.6414 7.62759 19.1845 8.66667C19.9933 10.2142 21 12.6743 21 15.3333C18.1875 15.3333 16.5 17 16.5 17C16.5 17 15.375 22 12 22C8.62499 22 7.49999 17 7.49999 17C7.49999 17 5.8125 15.3333 3 15.3333C3 12.6743 4.0067 10.2142 4.81552 8.66667C5.35861 7.62759 5.81249 7 5.81249 7M4.81552 8.66667C4.81552 8.66667 1.875 6.44436 4.81552 2C5.81249 2.55556 8.625 4.77778 8.625 4.77778C8.625 4.77778 10.3125 3.66667 12 3.66667C13.6875 3.66667 15.375 4.77778 15.375 4.77778C15.375 4.77778 18.1875 2.55556 19.3125 2C22.125 6.44456 19.1845 8.66667 19.1845 8.66667" stroke="#131927" stroke-width="1.5" stroke-linecap="round" stroke-linejoin="round"/>
<path d="M11 18L12 18M13 18L12 18M12 18L12 19" stroke="#131927" stroke-width="1.5" stroke-linecap="round" stroke-linejoin="round"/>
<path d="M8.5 12.5L10 14" stroke="#131927" stroke-width="1.5" stroke-linecap="round" stroke-linejoin="round"/>
<path d="M15.5 12.5L14 14" stroke="#131927" stroke-width="1.5" stroke-linecap="round" stroke-linejoin="round"/>
</svg>
